# xmcd CD database file
#
# Track frame offsets:
#	150
#	18262
#	40055
#
# Disc length: 805 seconds
#
# Revision: 1
# Processed by: cddbd v1.5.1PL0 Copyright (c) Steve Scherf et al.
# Submitted via: CDex 1.51
#
DISCID=17032303
DTITLE=CORE OF SOUL - アゲハ
DYEAR=2005
DGENRE=J-Pop
TTITLE0=アゲハ
TTITLE1=粉雪のきもち
TTITLE2=アゲハ(Jazztronik Remix)
EXTD=YEAR: 2005
EXTT0=
EXTT1=
EXTT2=
PLAYORDER=
